<svg width="45" height="32" viewBox="0 0 45 32" fill="none" xmlns="http://www.w3.org/2000/svg">
<path d="M44.6713 22.0325C43.5739 19.6505 40.227 16.0848 36.0135 13.3824C35.6425 13.1507 35.2443 12.9183 34.8169 12.6798C35.5765 12.286 36.4496 12.1691 37.2861 12.3491C38.2777 12.5427 39.293 12.5839 40.2971 12.4713C40.7697 12.3961 41.2535 12.1294 41.3278 11.7944C41.3757 11.579 41.1697 11.4525 41.0116 11.4269C39.9526 11.2448 39.4886 10.9021 39.3424 10.3295C40.318 10.6639 41.3823 10.6289 42.3338 10.2312C43.0556 9.77953 43.5845 9.07647 43.8183 8.25773C44.2234 6.65009 43.7397 6.66548 41.8475 6.25267C41.1962 6.10994 40.2697 5.96037 39.7646 5.8373C38.4587 5.5168 38.2758 3.75703 35.4357 3.09636C34.7304 2.91056 33.9904 2.90029 33.2802 3.06645C32.7897 2.65452 32.2637 2.28672 31.7085 1.96734C30.4871 1.22036 29.5085 0.702426 28.7043 0.195605C28.5888 0.113154 28.4578 0.0549469 28.3192 0.0244912C28.1805 -0.00596459 28.0372 -0.00803795 27.8978 0.0183961C27.7583 0.0448301 27.6257 0.0992241 27.5078 0.178299C27.39 0.257375 27.2894 0.359494 27.212 0.478502C27.0995 0.699113 27.0033 0.927631 26.924 1.16224C27.6983 1.43915 28.8769 1.8776 29.8034 2.29297C30.0947 2.39903 30.3675 2.55015 30.6119 2.74082C30.1034 2.60493 29.5402 2.48442 28.9769 2.37929C27.5983 2.12289 25.9429 1.71863 25.0454 1.59983C24.7935 1.56102 24.5359 1.61337 24.3191 1.74747C24.1022 1.88158 23.9404 2.08865 23.8626 2.33143C23.8046 2.79415 23.817 3.26298 23.8993 3.72199C24.0626 5.40227 24.7189 6.40138 25.6941 6.733C27.0881 7.02705 28.5395 6.87021 29.8385 6.28515C25.9847 10.244 21.0447 10.9269 15.6056 10.5987C10.0075 10.2568 6.14606 7.47827 3.31453 3.51943C3.17607 3.322 2.99659 3.45875 2.94018 3.71002C2.37695 6.16549 2.94018 9.48761 5.33327 11.1747C6.77671 12.2171 8.51511 12.7716 10.2955 12.7576C8.55455 13.6076 6.88108 14.5893 5.28968 15.6942C3.3866 16.9123 1.76889 18.5268 0.547095 20.4274C-1.01781 22.9273 1.13768 23.3726 2.47268 22.7667C6.01928 21.044 9.8947 20.1037 13.8364 20.0095C19.498 19.8775 25.037 21.6699 29.5479 25.0939C31.9811 26.8674 33.2614 28.5801 35.4776 31.2895C35.6985 31.5436 35.987 31.7297 36.3096 31.8263C36.6322 31.9228 36.9756 31.9257 37.2997 31.8347C37.9271 31.6775 38.4877 30.9279 38.2399 29.3981C37.597 25.8209 36.0725 22.4604 33.8041 19.6206C35.5001 20.2494 37.1365 21.0285 38.6937 21.9487C39.9793 22.7609 41.2148 23.6496 42.3936 24.6102C42.6808 24.8051 43.0171 24.9152 43.364 24.9279C43.7109 24.9406 44.0543 24.8554 44.3551 24.682C44.8935 24.3299 45.3217 23.4359 44.673 22.0325" fill="#4D3524"/>
<path d="M37.4885 5.79028C37.5233 5.86958 37.5422 5.95496 37.5441 6.04155C37.5459 6.12815 37.5307 6.21426 37.4993 6.29498C37.4679 6.37569 37.4208 6.44942 37.3609 6.51196C37.301 6.57451 37.2293 6.62463 37.15 6.65948C37.0707 6.69433 36.9854 6.71322 36.8988 6.71507C36.8122 6.71693 36.7261 6.7017 36.6453 6.67028C36.5646 6.63885 36.4909 6.59183 36.4284 6.53191C36.3658 6.47198 36.3157 6.40033 36.2808 6.32103C36.2105 6.16089 36.2066 5.97934 36.27 5.81634C36.3335 5.65333 36.4591 5.52221 36.6193 5.45183C36.7794 5.38145 36.961 5.37757 37.124 5.44104C37.287 5.50451 37.4181 5.63014 37.4885 5.79028Z" fill="white"/>
<path d="M34.0374 16.0601C34.1407 16.2948 34.1719 16.5548 34.1273 16.8074C34.0827 17.0599 33.9641 17.2935 33.7866 17.4785C33.6092 17.6636 33.3808 17.7919 33.1303 17.8471C32.8799 17.9023 32.6188 17.882 32.3799 17.7887C32.1411 17.6953 31.9353 17.5333 31.7886 17.3229C31.6419 17.1126 31.561 16.8635 31.556 16.6071C31.551 16.3507 31.6221 16.0986 31.7605 15.8827C31.8989 15.6668 32.0982 15.4968 32.3332 15.3943C32.6478 15.258 33.0034 15.2515 33.3228 15.3762C33.6421 15.5009 33.8993 15.7467 34.0382 16.0601" fill="#EA5D24"/>
<path d="M34.0126 13.3302C33.5508 13.7846 32.9883 14.1238 32.3709 14.3201C31.7534 14.5164 31.0984 14.5644 30.4589 14.4601C29.1594 14.311 27.9585 13.6945 27.0798 12.7256C26.2012 11.7567 25.7047 10.5014 25.683 9.1936C26.1958 8.9372 27.0317 8.50986 27.7342 8.06543C27.5641 9.28644 27.8732 10.5259 28.5967 11.5241C29.3202 12.5222 30.402 13.2017 31.6153 13.42C32.4122 13.5285 33.2219 13.4978 34.0084 13.3294" fill="#EA5D24"/>
</svg>
