<svg width="19" height="19" viewBox="0 0 19 19" fill="none" xmlns="http://www.w3.org/2000/svg">
<path d="M8.29341 14.5715C9.0893 14.5715 9.8774 14.4163 10.6127 14.1148C11.348 13.8133 12.0161 13.3713 12.5789 12.8142C13.1417 12.257 13.5881 11.5956 13.8927 10.8676C14.1973 10.1397 14.354 9.35945 14.354 8.57152C14.354 7.78359 14.1973 7.00337 13.8927 6.27542C13.5881 5.54746 13.1417 4.88603 12.5789 4.32888C12.0161 3.77173 11.348 3.32977 10.6127 3.02824C9.8774 2.72671 9.0893 2.57152 8.29341 2.57152C6.68604 2.57152 5.1445 3.20366 4.00792 4.32888C2.87133 5.4541 2.23281 6.98022 2.23281 8.57152C2.23281 10.1628 2.87133 11.6889 4.00792 12.8142C5.1445 13.9394 6.68604 14.5715 8.29341 14.5715ZM14.6773 13.4775L18.2934 17.0575C18.3898 17.1498 18.4667 17.2602 18.5195 17.3823C18.5724 17.5043 18.6002 17.6356 18.6012 17.7683C18.6023 17.9011 18.5766 18.0328 18.5258 18.1556C18.4749 18.2785 18.3998 18.3901 18.3049 18.4839C18.21 18.5777 18.0972 18.6519 17.973 18.7021C17.8488 18.7523 17.7158 18.7775 17.5817 18.7763C17.4476 18.775 17.315 18.7473 17.1918 18.6948C17.0686 18.6423 16.9572 18.5661 16.8641 18.4705L13.248 14.8905C11.6242 16.1384 9.58108 16.7267 7.53458 16.5357C5.48807 16.3447 3.592 15.3888 2.23235 13.8626C0.872703 12.3363 0.151681 10.3545 0.216066 8.32044C0.280451 6.28642 1.1254 4.35314 2.57891 2.91416C4.03243 1.47519 5.98523 0.638684 8.0398 0.574943C10.0944 0.511202 12.0962 1.22501 13.6379 2.57107C15.1796 3.91712 16.1452 5.79423 16.3381 7.82027C16.531 9.84631 15.9367 11.869 14.6762 13.4765L14.6773 13.4775Z" fill="#1D1D1B"/>
</svg>
